<svg width="69" height="56" viewBox="0 0 69 56" fill="none" xmlns="http://www.w3.org/2000/svg">
<g clip-path="url(#clip0_1_6)">
<path d="M39.15 16.87L37.84 15.87C37.6353 15.7042 37.3734 15.6259 37.1112 15.6522C36.8491 15.6784 36.6079 15.807 36.44 16.01L18.31 36.83L18.59 37.14L23.08 33C22.9304 32.9398 22.8066 32.8291 22.7301 32.687C22.6536 32.545 22.6293 32.3807 22.6614 32.2226C22.6935 32.0646 22.7799 31.9227 22.9057 31.8218C23.0315 31.7208 23.1887 31.6671 23.35 31.67C23.4954 31.67 23.637 31.7166 23.754 31.803C23.871 31.8894 23.9572 32.011 24 32.15L29.92 26.66C30.0107 26.587 30.1236 26.5471 30.24 26.5471C30.3564 26.5471 30.4693 26.587 30.56 26.66L30.86 26.88C30.9615 26.9527 31.0865 26.9849 31.2105 26.9701C31.3345 26.9553 31.4485 26.8946 31.53 26.8L39.27 18.12C39.3523 18.0338 39.415 17.931 39.454 17.8184C39.493 17.7058 39.5072 17.5862 39.4958 17.4676C39.4845 17.349 39.4477 17.2342 39.388 17.1311C39.3283 17.028 39.2472 16.939 39.15 16.87Z" fill="#303030"/>
<path d="M47.67 22.73C43.7025 25.553 39.2578 27.6364 34.55 28.88C29.8774 30.0683 25.0962 30.7787 20.28 31C20.377 31.7102 20.5513 32.4077 20.8 33.08C23.52 35.54 44 31.34 48 26.48C48.85 25.47 47.67 22.73 47.67 22.73ZM23.35 33C23.2155 33 23.084 32.9601 22.9722 32.8854C22.8604 32.8107 22.7732 32.7045 22.7218 32.5802C22.6703 32.456 22.6568 32.3193 22.6831 32.1874C22.7093 32.0554 22.7741 31.9343 22.8692 31.8392C22.9643 31.7441 23.0854 31.6793 23.2173 31.6531C23.3492 31.6268 23.486 31.6403 23.6102 31.6918C23.7345 31.7432 23.8407 31.8304 23.9154 31.9422C23.9901 32.054 24.03 32.1855 24.03 32.32C24.0313 32.4097 24.0147 32.4987 23.981 32.5818C23.9473 32.6649 23.8973 32.7404 23.8338 32.8038C23.7704 32.8673 23.6949 32.9173 23.6118 32.951C23.5287 32.9847 23.4397 33.0014 23.35 33Z" fill="#303030"/>
<path d="M3.99999 21.29L4.15999 20.6L6.75999 21.19C6.9745 21.5862 7.10713 22.0215 7.14999 22.47C7.19962 22.945 7.1692 23.425 7.05999 23.89C6.93055 24.5353 6.634 25.1353 6.19999 25.63C5.78708 26.0971 5.25467 26.4428 4.65999 26.63C4.04709 26.819 3.3952 26.8431 2.76999 26.7C2.14341 26.5647 1.56586 26.2603 1.09999 25.82C0.641263 25.397 0.311859 24.8526 0.149994 24.25C-0.0295716 23.5954 -0.0295716 22.9046 0.149994 22.25C0.257472 21.7601 0.450421 21.293 0.719994 20.87C0.975133 20.4853 1.31784 20.1666 1.71999 19.94L2.07999 20.49C1.7353 20.7016 1.43941 20.984 1.21188 21.3184C0.984338 21.6528 0.830321 22.0317 0.759994 22.43C0.635981 22.9473 0.646308 23.4878 0.789994 24C0.924364 24.4864 1.19089 24.926 1.55999 25.27C1.93937 25.6367 2.41403 25.8896 2.92999 26C3.43032 26.1405 3.95967 26.1405 4.45999 26C4.93928 25.8418 5.36976 25.5628 5.70999 25.19C6.05964 24.7873 6.30059 24.302 6.40999 23.78C6.57453 23.1468 6.53248 22.4776 6.28999 21.87L3.99999 21.29Z" fill="#303030"/>
<path d="M9.66001 15L7.33001 18.11L8.33001 19.9L7.87001 20.52L4.17001 13.77L4.60001 13.18L12.13 14.8L11.66 15.42L9.66001 15ZM9.00001 14.84L5.00001 13.94L7.00001 17.53L9.00001 14.84Z" fill="#303030"/>
<path d="M9 8.55001L9.6 8.10001L13.41 13.2L16.55 10.85L16.93 11.36L13.2 14.15L9 8.55001Z" fill="#303030"/>
<path d="M15.3 4.37999L15.97 4.07999L18.61 9.85999L22.18 8.23999L22.44 8.81999L18.2 10.75L15.3 4.37999Z" fill="#303030"/>
<path d="M28.48 6.68L28.63 7.31L23.81 8.44L22.21 1.62L26.89 0.529999L27.03 1.15L23.03 2.08L23.6 4.5L27.12 3.67L27.27 4.29L23.74 5.11L24.34 7.64L28.48 6.68Z" fill="#303030"/>
<path d="M35.35 6.93L33.68 4.73C33.4935 4.74032 33.3065 4.74032 33.12 4.73L31.24 4.79L31.31 7.01H30.57L30.34 0.00999918L33 -8.21427e-07C33.7521 -0.0694589 34.5042 0.132752 35.12 0.569999C35.3795 0.778993 35.5882 1.04421 35.7302 1.34563C35.8723 1.64705 35.944 1.97681 35.94 2.31C35.9692 2.80419 35.8395 3.29476 35.57 3.71C35.2826 4.10856 34.8766 4.40606 34.41 4.56L36.16 6.9L35.35 6.93ZM34.65 3.64C34.8297 3.47535 34.9692 3.27157 35.0576 3.04442C35.1461 2.81728 35.1811 2.57284 35.16 2.33C35.1652 2.08587 35.1147 1.84377 35.0125 1.62201C34.9103 1.40025 34.759 1.20464 34.57 1.05C34.1091 0.737478 33.5548 0.592737 33 0.639999L31.1 0.709999L31.22 4.21L33.08 4.15C33.6472 4.17099 34.2034 3.99029 34.65 3.64Z" fill="#303030"/>
<path d="M40.64 5.07L40.28 7.46L39.55 7.35L39.92 5L37.85 0L38.63 0.12L40.4 4.38L43.4 0.85L44.1 1L40.64 5.07Z" fill="#303030"/>
<path d="M50.53 4.64999L51.4 5.77999L51.02 6.07999L50.15 4.91999L49.6 6.22999L49.18 6.04999L49.74 4.73999L48.3 4.92999V4.44999L49.72 4.28999L48.84 3.15999L49.23 2.85999L50 3.99999L50.54 2.67999L50.97 2.85999L50.46 4.19999L51.9 3.99999V4.48999L50.53 4.64999Z" fill="#303030"/>
<path d="M53.87 12.71C53.6339 12.3459 53.4866 11.9315 53.44 11.5L54.03 11.24C54.0743 11.6364 54.2039 12.0185 54.41 12.36C54.6334 12.7429 54.9248 13.0818 55.27 13.36C55.6264 13.7013 56.0813 13.9217 56.57 13.99C56.7466 14.0064 56.9245 13.9794 57.0883 13.9114C57.2521 13.8435 57.3969 13.7366 57.51 13.6C57.5929 13.5085 57.6562 13.4009 57.6957 13.2839C57.7353 13.1669 57.7504 13.0431 57.74 12.92C57.7069 12.6763 57.6253 12.4417 57.5 12.23C57.3121 11.9231 57.1085 11.626 56.89 11.34C56.6238 10.9912 56.3831 10.6236 56.17 10.24C56.0071 9.95293 55.9178 9.63 55.91 9.30001C55.9093 8.92943 56.0486 8.57227 56.3 8.30001C56.5179 8.03614 56.8055 7.83866 57.13 7.73001C57.4926 7.62528 57.8774 7.62528 58.24 7.73001C58.7072 7.88279 59.139 8.1276 59.51 8.45001C59.8179 8.70608 60.0903 9.00201 60.32 9.33001C60.5324 9.63417 60.6914 9.97236 60.79 10.33L60.22 10.63C60.1206 10.2967 59.9723 9.97988 59.78 9.69001C59.5884 9.43115 59.3631 9.19909 59.11 9.00001C58.7589 8.66025 58.3054 8.44584 57.82 8.39001C57.6416 8.37509 57.4623 8.40475 57.2982 8.47632C57.1342 8.54789 56.9904 8.65912 56.88 8.80001C56.7949 8.8901 56.7304 8.9975 56.6907 9.11486C56.651 9.23223 56.6371 9.35678 56.65 9.48001C56.6734 9.73218 56.7556 9.97535 56.89 10.19C57.03 10.42 57.23 10.72 57.5 11.08C57.7677 11.4208 58.0084 11.7819 58.22 12.16C58.3864 12.4462 58.4792 12.7692 58.49 13.1C58.4907 13.4706 58.3514 13.8277 58.1 14.1C57.8813 14.3675 57.5894 14.5656 57.26 14.67C56.8981 14.7793 56.5119 14.7793 56.15 14.67C55.6796 14.5177 55.2444 14.2729 54.87 13.95C54.4663 13.5987 54.1278 13.1789 53.87 12.71Z" fill="#303030"/>
<path d="M63.93 14.17L62.52 12.17L63.04 11.8L66.29 16.44L65.77 16.81L64.36 14.81L59.14 18.46L58.72 17.85L63.93 14.17Z" fill="#303030"/>
<path d="M61.69 22.39C61.8685 21.7856 62.2154 21.2446 62.69 20.83C63.1543 20.4142 63.72 20.1279 64.33 20C64.9519 19.8572 65.6005 19.8814 66.21 20.07C66.7983 20.2645 67.3257 20.6092 67.74 21.07C68.1708 21.5656 68.4639 22.1656 68.59 22.81C68.7556 23.4427 68.7556 24.1073 68.59 24.74C68.4066 25.3421 68.0605 25.8819 67.59 26.3C67.1129 26.7271 66.5333 27.0233 65.9077 27.16C65.2821 27.2967 64.6318 27.2691 64.02 27.08C63.4272 26.8949 62.8975 26.5487 62.49 26.08C62.0612 25.587 61.7682 24.9907 61.64 24.35C61.4872 23.7033 61.5045 23.0281 61.69 22.39ZM63 25.57C63.3339 25.9502 63.7665 26.2306 64.25 26.38C64.7483 26.5245 65.275 26.5417 65.7816 26.4299C66.2883 26.3181 66.7588 26.0809 67.15 25.74C67.5191 25.4004 67.7917 24.9691 67.94 24.49C68.0794 23.9841 68.0931 23.4518 67.9798 22.9393C67.8665 22.4269 67.6297 21.95 67.29 21.55C66.9415 21.168 66.4955 20.888 66 20.74C65.4954 20.606 64.9646 20.606 64.46 20.74C63.9509 20.8377 63.4795 21.0768 63.1 21.43C62.7275 21.7708 62.4545 22.2063 62.31 22.69C62.1742 23.1978 62.1742 23.7323 62.31 24.24C62.4195 24.7361 62.6575 25.1948 63 25.57Z" fill="#303030"/>
<path d="M60.93 34L63.52 33C63.52 32.82 63.58 32.64 63.63 32.45L64.12 30.64L62 30.09L62.19 29.38L68.95 31.19L68.27 33.72C68.1168 34.4582 67.7055 35.1177 67.11 35.58C66.8363 35.7701 66.5224 35.8942 66.1928 35.9428C65.8632 35.9914 65.5268 35.963 65.21 35.86C64.7274 35.7553 64.295 35.4892 63.9841 35.1056C63.6732 34.722 63.5024 34.2438 63.5 33.75L60.74 34.75L60.93 34ZM64.28 34.28C64.3971 34.4925 64.556 34.6792 64.7472 34.8287C64.9383 34.9782 65.1577 35.0876 65.3921 35.1502C65.6266 35.2128 65.8713 35.2273 66.1115 35.1929C66.3517 35.1585 66.5825 35.0759 66.79 34.95C67.2314 34.5955 67.5326 34.0958 67.64 33.54L68.12 31.74L64.73 30.83L64.25 32.63C64.0655 33.1664 64.0761 33.7507 64.28 34.28Z" fill="#303030"/>
<path d="M57.34 40.44L56.83 40.05L59.83 36.1L65.41 40.33L62.51 44.16L62 43.77L64.45 40.54L62.45 39.03L60.26 41.92L59.76 41.54L62 38.65L59.93 37.08L57.34 40.44Z" fill="#303030"/>
<path d="M55 48.41L53.57 48.49V48.01L55 48L54.23 46.81L54.62 46.56L55.38 47.76L56 46.42L56.43 46.65L55.75 47.91L57.18 47.83V48.32H55.73L56.5 49.51L56.11 49.76L55.35 48.56L54.69 49.86L54.27 49.62L55 48.41Z" fill="#303030"/>
<path d="M42 47.61L43.21 48.28C43.4128 47.8903 43.696 47.548 44.0407 47.2757C44.3854 47.0033 44.7839 46.8071 45.21 46.7C45.6074 46.576 46.0254 46.5319 46.44 46.57C46.7997 46.5976 47.1452 46.722 47.44 46.93C47.7064 47.1308 47.9025 47.4109 48 47.73C48.1205 48.1247 48.0993 48.5492 47.94 48.93C47.6891 49.4474 47.3508 49.9176 46.94 50.32C47.2697 50.4971 47.5755 50.7156 47.85 50.97C48.0386 51.1649 48.179 51.4012 48.26 51.66C48.3112 51.8617 48.3144 52.0727 48.2693 52.2759C48.2241 52.4791 48.1319 52.6689 48 52.83C47.733 53.2146 47.3347 53.4884 46.88 53.6C46.4807 53.7522 46.0393 53.7522 45.64 53.6C45.4624 53.5236 45.305 53.4071 45.1801 53.2596C45.0551 53.1121 44.9661 52.9377 44.92 52.75C44.8151 52.4199 44.8402 52.0622 44.99 51.75C45.2195 51.2954 45.52 50.8802 45.88 50.52L43.47 49.18C43.378 49.6509 43.3578 50.133 43.41 50.61H42.8C42.7589 50.0226 42.8267 49.4327 43 48.87L41.74 48.17L42 47.61ZM43.74 48.61L46.39 50.08C46.7373 49.7483 47.0248 49.3593 47.24 48.93C47.3499 48.64 47.3499 48.3199 47.24 48.03C47.1946 47.8567 47.1069 47.6975 46.9847 47.5665C46.8625 47.4356 46.7097 47.3371 46.54 47.28C46.1248 47.1398 45.6751 47.1398 45.26 47.28C44.9207 47.3695 44.6053 47.5322 44.3357 47.7569C44.0662 47.9815 43.8492 48.2624 43.7 48.58L43.74 48.61ZM47.5 52.61C47.5653 52.4995 47.6063 52.3763 47.6201 52.2486C47.6339 52.121 47.6202 51.9919 47.58 51.87C47.5187 51.6725 47.4087 51.4937 47.26 51.35C47.0054 51.1353 46.7269 50.9507 46.43 50.8C46.1268 51.0998 45.8615 51.4356 45.64 51.8C45.5191 52.0272 45.4904 52.2922 45.56 52.54C45.5917 52.6544 45.6473 52.7608 45.7232 52.8521C45.799 52.9435 45.8934 53.0177 46 53.07C46.2546 53.1659 46.5354 53.1659 46.79 53.07C47.0619 52.9974 47.2992 52.8309 47.46 52.6L47.5 52.61Z" fill="#303030"/>
<path d="M29.81 55.32L29.95 48.32H30.66L30.55 53.92L33.39 49.26H33.74L36.4 54L36.5 48.43H37.21L37.08 55.43H36.47L33.53 50.2L30.42 55.33L29.81 55.32Z" fill="#303030"/>
<path d="M26.33 48C26.7873 48.4358 27.1145 48.9901 27.2752 49.601C27.4359 50.212 27.4237 50.8556 27.24 51.46C27.0757 52.0789 26.7475 52.642 26.29 53.09C25.8454 53.527 25.2879 53.8317 24.68 53.97C24.0387 54.1147 23.3711 54.094 22.74 53.91C22.111 53.7564 21.5323 53.4429 21.06 53C20.6095 52.5697 20.2875 52.0227 20.13 51.42C19.9762 50.7969 19.9876 50.1446 20.1629 49.5273C20.3383 48.91 20.6716 48.3491 21.13 47.9C21.5667 47.4641 22.1123 47.1533 22.71 47C23.348 46.8557 24.0122 46.8763 24.64 47.06C25.2755 47.221 25.858 47.545 26.33 48ZM22.92 47.65C22.4308 47.7639 21.9837 48.0134 21.63 48.37C21.2616 48.7369 20.9991 49.1963 20.87 49.7C20.7305 50.2004 20.7305 50.7295 20.87 51.23C20.9879 51.7169 21.241 52.1606 21.6 52.51C21.9765 52.8782 22.4414 53.1433 22.95 53.28C23.4585 53.4095 23.9914 53.4095 24.5 53.28C24.9895 53.1596 25.4382 52.9111 25.8 52.56C26.1664 52.1916 26.4286 51.7327 26.56 51.23C26.6998 50.7262 26.6998 50.1938 26.56 49.69C26.432 49.2049 26.1765 48.7629 25.82 48.41C25.4415 48.0413 24.9723 47.7791 24.46 47.65C23.9561 47.5107 23.4239 47.5107 22.92 47.65Z" fill="#303030"/>
<path d="M15.35 43L15.62 45.75C15.7915 45.8232 15.9585 45.9067 16.12 46L17.75 46.94L18.85 45L19.5 45.37L16 51.4L13.72 50.09C13.0461 49.7514 12.5144 49.1843 12.22 48.49C12.1113 48.1771 12.0746 47.8438 12.1127 47.5148C12.1508 47.1858 12.2627 46.8697 12.44 46.59C12.6724 46.1517 13.0409 45.8008 13.49 45.59C13.9461 45.401 14.4505 45.3625 14.93 45.48L14.64 42.54L15.35 43ZM14.21 46.16C13.9751 46.2189 13.7546 46.3246 13.5615 46.4708C13.3684 46.6169 13.2069 46.8005 13.0864 47.0106C12.966 47.2207 12.8892 47.4529 12.8606 47.6933C12.832 47.9338 12.8522 48.1775 12.92 48.41C13.1544 48.9275 13.5607 49.348 14.07 49.6L15.68 50.53L17.43 47.53L15.82 46.6C15.3572 46.2532 14.7875 46.0798 14.21 46.11V46.16Z" fill="#303030"/>
<path d="M9.43 38.31L9.88 37.86L13.33 41.41L8.33 46.29L5 42.85L5.46 42.4L8.29 45.31L10 43.58L7.52 41L8 40.54L10.53 43.14L12.39 41.33L9.43 38.31Z" fill="#303030"/>
<path d="M1.99999 34.38L2.23999 33L2.70999 33.07L2.43999 34.49L3.76999 34L3.92999 34.44L2.57999 34.9L3.68999 35.84L3.36999 36.2L2.29999 35.2L2.04999 36.62L1.56999 36.53L1.84999 35.11L0.509985 35.59L0.359985 35.2L1.69999 34.73L0.589985 33.8L0.919985 33.44L1.99999 34.38Z" fill="#303030"/>
</g>
<defs>
<clipPath id="clip0_1_6">
<rect width="68.93" height="55.46" fill="white"/>
</clipPath>
</defs>
</svg>
